<svg width="487" height="155" viewBox="0 0 487 155" fill="none" xmlns="http://www.w3.org/2000/svg">
<path d="M5 68.6021L121.5 1.34109C126.283 -1.41991 132.398 0.219092 135.16 5.00109C137.922 9.78409 136.282 15.8991 131.5 18.6611L47.287 67.2811H477C482.523 67.2811 487 71.7591 487 77.2811C487 82.8021 482.523 87.2811 477 87.2811H47.354L131.5 135.864C136.283 138.626 137.922 144.741 135.16 149.524C133.307 152.732 129.947 154.526 126.491 154.526C124.795 154.526 123.075 154.092 121.5 153.184L5 85.9221C1.906 84.1361 0 80.8341 0 77.2621C0 73.6901 1.906 70.3881 5 68.6021Z" fill="black"/>
</svg>
