<svg id="etrp00u7qjrh1" xmlns="http://www.w3.org/2000/svg" xmlns:xlink="http://www.w3.org/1999/xlink" viewBox="0 0 340 340" shape-rendering="geometricPrecision" text-rendering="geometricPrecision" width="340" height="340"><style><![CDATA[#etrp00u7qjrh3_tr {animation: etrp00u7qjrh3_tr__tr 1500ms linear infinite normal backwards}@keyframes etrp00u7qjrh3_tr__tr { 0% {transform: translate(169.999231px,170.000408px) rotate(-360deg)} 100% {transform: translate(169.999231px,170.000408px) rotate(0deg)} }]]></style><path id="etrp00u7qjrh2" d="M77.812500,177L76.523500,173.191000L71.152400,173.191000L69.863300,177L67.587900,177L72.675800,162.908000L75.039100,162.908000L80.127000,177L77.812500,177ZM73.808600,165.252000L71.709000,171.434000L75.966800,171.434000L73.867200,165.252000L73.808600,165.252000ZM81.425800,177L81.425800,166.727000L83.437500,166.727000L83.437500,168.445000L83.486400,168.445000C83.772800,167.846000,84.189500,167.381000,84.736400,167.049000C85.283200,166.717000,85.944000,166.551000,86.718800,166.551000C87.845100,166.551000,88.720700,166.889000,89.345700,167.566000C89.970700,168.237000,90.283200,169.165000,90.283200,170.350000L90.283200,177L88.164100,177L88.164100,170.760000C88.164100,169.979000,87.978500,169.386000,87.607500,168.982000C87.242900,168.572000,86.699200,168.367000,85.976600,168.367000C85.234400,168.367000,84.642000,168.608000,84.199200,169.090000C83.756500,169.572000,83.535200,170.213000,83.535200,171.014000L83.535200,177L81.425800,177ZM95.918000,175.506000C96.660200,175.506000,97.281900,175.281000,97.783200,174.832000C98.291000,174.376000,98.545000,173.816000,98.545000,173.152000L98.545000,172.342000L96.015700,172.498000C95.384100,172.544000,94.895900,172.700000,94.550800,172.967000C94.212300,173.227000,94.043000,173.579000,94.043000,174.022000C94.043000,174.471000,94.212300,174.832000,94.550800,175.105000C94.895900,175.372000,95.351600,175.506000,95.918000,175.506000ZM95.332100,177.176000C94.322900,177.176000,93.499400,176.889000,92.861400,176.316000C92.229800,175.744000,91.914100,174.998000,91.914100,174.080000C91.914100,173.182000,92.246100,172.469000,92.910200,171.941000C93.574200,171.408000,94.515000,171.108000,95.732500,171.043000L98.545000,170.877000L98.545000,170.086000C98.545000,169.513000,98.362700,169.067000,97.998100,168.748000C97.633500,168.423000,97.128900,168.260000,96.484400,168.260000C95.885400,168.260000,95.397200,168.393000,95.019600,168.660000C94.648500,168.927000,94.414100,169.295000,94.316400,169.764000L92.324200,169.764000C92.382800,168.813000,92.793000,168.038000,93.554700,167.439000C94.316400,166.841000,95.319000,166.541000,96.562500,166.541000C97.806000,166.541000,98.795600,166.847000,99.531300,167.459000C100.273000,168.071000,100.645000,168.891000,100.645000,169.920000L100.645000,177L98.623100,177L98.623100,175.311000L98.574200,175.311000C98.281300,175.877000,97.835300,176.329000,97.236400,176.668000C96.643900,177.007000,96.009100,177.176000,95.332100,177.176000ZM102.773000,177L102.773000,162.908000L104.883000,162.908000L104.883000,177L102.773000,177ZM108.066000,180.828000C107.669000,180.828000,107.383000,180.812000,107.207000,180.779000L107.207000,179.070000C107.311000,179.096000,107.539000,179.109000,107.891000,179.109000C108.385000,179.109000,108.773000,178.995000,109.053000,178.768000C109.333000,178.546000,109.554000,178.172000,109.717000,177.645000C109.717000,177.638000,109.749000,177.531000,109.814000,177.322000L109.902000,177.010000L106.191000,166.727000L108.477000,166.727000L111.084000,175.086000L111.113000,175.086000L113.721000,166.727000L115.947000,166.727000L112.090000,177.537000C111.654000,178.781000,111.143000,179.640000,110.557000,180.115000C109.971000,180.591000,109.141000,180.828000,108.066000,180.828000ZM116.973000,177L116.973000,175.643000L122.451000,168.445000L122.451000,168.406000L117.012000,168.406000L117.012000,166.727000L124.873000,166.727000L124.873000,168.172000L119.531000,175.281000L119.531000,175.320000L124.932000,175.320000L124.932000,177L116.973000,177ZM126.885000,177L126.885000,166.727000L128.994000,166.727000L128.994000,177L126.885000,177ZM128.809000,164.871000C128.568000,165.105000,128.278000,165.223000,127.939000,165.223000C127.601000,165.223000,127.311000,165.105000,127.070000,164.871000C126.836000,164.637000,126.719000,164.354000,126.719000,164.022000C126.719000,163.683000,126.836000,163.397000,127.070000,163.162000C127.311000,162.928000,127.601000,162.811000,127.939000,162.811000C128.285000,162.811000,128.574000,162.928000,128.809000,163.162000C129.050000,163.397000,129.170000,163.683000,129.170000,164.022000C129.170000,164.354000,129.050000,164.637000,128.809000,164.871000ZM131.152000,177L131.152000,166.727000L133.164000,166.727000L133.164000,168.445000L133.213000,168.445000C133.499000,167.846000,133.916000,167.381000,134.463000,167.049000C135.010000,166.717000,135.671000,166.551000,136.445000,166.551000C137.572000,166.551000,138.447000,166.889000,139.072000,167.566000C139.697000,168.237000,140.010000,169.165000,140.010000,170.350000L140.010000,177L137.891000,177L137.891000,170.760000C137.891000,169.979000,137.705000,169.386000,137.334000,168.982000C136.969000,168.572000,136.426000,168.367000,135.703000,168.367000C134.961000,168.367000,134.369000,168.608000,133.926000,169.090000C133.483000,169.572000,133.262000,170.213000,133.262000,171.014000L133.262000,177L131.152000,177ZM146.426000,175.291000C147.253000,175.291000,147.913000,174.979000,148.408000,174.354000C148.910000,173.729000,149.160000,172.889000,149.160000,171.834000C149.160000,170.779000,148.910000,169.933000,148.408000,169.295000C147.913000,168.657000,147.253000,168.338000,146.426000,168.338000C145.612000,168.338000,144.961000,168.654000,144.473000,169.285000C143.991000,169.917000,143.750000,170.766000,143.750000,171.834000C143.750000,172.902000,143.991000,173.745000,144.473000,174.363000C144.961000,174.982000,145.612000,175.291000,146.426000,175.291000ZM146.445000,180.867000C145.247000,180.867000,144.232000,180.581000,143.398000,180.008000C142.572000,179.435000,142.093000,178.699000,141.963000,177.801000L144.082000,177.801000C144.232000,178.230000,144.525000,178.576000,144.961000,178.836000C145.404000,179.096000,145.925000,179.227000,146.523000,179.227000C147.337000,179.227000,147.979000,179.012000,148.447000,178.582000C148.916000,178.159000,149.150000,177.592000,149.150000,176.883000L149.150000,175.193000L149.111000,175.193000C148.818000,175.760000,148.382000,176.209000,147.803000,176.541000C147.230000,176.873000,146.582000,177.039000,145.859000,177.039000C144.564000,177.039000,143.529000,176.570000,142.754000,175.633000C141.979000,174.689000,141.592000,173.419000,141.592000,171.824000C141.592000,170.210000,141.979000,168.930000,142.754000,167.986000C143.535000,167.036000,144.587000,166.561000,145.908000,166.561000C146.631000,166.561000,147.279000,166.733000,147.852000,167.078000C148.425000,167.417000,148.867000,167.885000,149.180000,168.484000L149.219000,168.484000L149.219000,166.727000L151.270000,166.727000L151.270000,176.814000C151.270000,178.038000,150.830000,179.018000,149.951000,179.754000C149.079000,180.496000,147.910000,180.867000,146.445000,180.867000ZM162.773000,166.561000C164.082000,166.561000,165.130000,167.039000,165.918000,167.996000C166.706000,168.953000,167.100000,170.242000,167.100000,171.863000C167.100000,173.484000,166.709000,174.777000,165.928000,175.740000C165.147000,176.697000,164.108000,177.176000,162.813000,177.176000C162.083000,177.176000,161.436000,177.010000,160.869000,176.678000C160.309000,176.346000,159.880000,175.890000,159.580000,175.311000L159.531000,175.311000L159.531000,180.398000L157.422000,180.398000L157.422000,166.727000L159.463000,166.727000L159.463000,168.494000L159.502000,168.494000C159.808000,167.895000,160.247000,167.423000,160.820000,167.078000C161.393000,166.733000,162.044000,166.561000,162.773000,166.561000ZM162.217000,175.389000C163.050000,175.389000,163.711000,175.073000,164.199000,174.441000C164.688000,173.803000,164.932000,172.944000,164.932000,171.863000C164.932000,170.789000,164.688000,169.933000,164.199000,169.295000C163.711000,168.657000,163.050000,168.338000,162.217000,168.338000C161.410000,168.338000,160.758000,168.660000,160.264000,169.305000C159.769000,169.949000,159.522000,170.802000,159.522000,171.863000C159.522000,172.931000,159.766000,173.787000,160.254000,174.432000C160.749000,175.070000,161.403000,175.389000,162.217000,175.389000ZM177.539000,166.727000L177.539000,177L175.518000,177L175.518000,175.262000L175.469000,175.262000C174.876000,176.544000,173.815000,177.186000,172.285000,177.186000C171.165000,177.186000,170.283000,176.847000,169.639000,176.170000C169.001000,175.486000,168.682000,174.555000,168.682000,173.377000L168.682000,166.727000L170.791000,166.727000L170.791000,172.967000C170.791000,173.755000,170.977000,174.354000,171.348000,174.764000C171.719000,175.167000,172.266000,175.369000,172.988000,175.369000C173.744000,175.369000,174.339000,175.128000,174.775000,174.647000C175.212000,174.165000,175.430000,173.520000,175.430000,172.713000L175.430000,166.727000L177.539000,166.727000ZM179.707000,177L179.707000,162.908000L181.816000,162.908000L181.816000,177L179.707000,177ZM184.063000,177L184.063000,162.908000L186.172000,162.908000L186.172000,177L184.063000,177ZM192.402000,177L192.402000,166.727000L194.414000,166.727000L194.414000,168.475000L194.463000,168.475000C194.632000,167.876000,194.935000,167.407000,195.371000,167.068000C195.807000,166.730000,196.328000,166.561000,196.934000,166.561000C197.135000,166.561000,197.376000,166.587000,197.656000,166.639000L197.656000,168.602000C197.467000,168.523000,197.152000,168.484000,196.709000,168.484000C196.032000,168.484000,195.495000,168.696000,195.098000,169.119000C194.707000,169.542000,194.512000,170.119000,194.512000,170.848000L194.512000,177L192.402000,177ZM204.600000,168.982000C204.137000,168.488000,203.542000,168.240000,202.813000,168.240000C202.083000,168.240000,201.478000,168.491000,200.996000,168.992000C200.514000,169.487000,200.247000,170.128000,200.195000,170.916000L205.332000,170.916000C205.306000,170.122000,205.062000,169.477000,204.600000,168.982000ZM205.322000,173.982000L207.324000,173.982000C207.175000,174.926000,206.693000,175.698000,205.879000,176.297000C205.065000,176.896000,204.072000,177.195000,202.900000,177.195000C201.397000,177.195000,200.212000,176.723000,199.346000,175.779000C198.486000,174.829000,198.057000,173.540000,198.057000,171.912000C198.057000,170.298000,198.486000,168.999000,199.346000,168.016000C200.212000,167.033000,201.367000,166.541000,202.813000,166.541000C204.232000,166.541000,205.358000,167.007000,206.191000,167.938000C207.025000,168.862000,207.441000,170.105000,207.441000,171.668000L207.441000,172.391000L200.186000,172.391000L200.186000,172.518000C200.186000,173.416000,200.436000,174.135000,200.938000,174.676000C201.439000,175.216000,202.109000,175.486000,202.949000,175.486000C203.542000,175.486000,204.050000,175.350000,204.473000,175.076000C204.896000,174.803000,205.179000,174.438000,205.322000,173.982000ZM212.939000,166.561000C213.669000,166.561000,214.316000,166.733000,214.883000,167.078000C215.456000,167.423000,215.895000,167.895000,216.201000,168.494000L216.250000,168.494000L216.250000,166.727000L218.301000,166.727000L218.301000,180.398000L216.182000,180.398000L216.182000,175.272000L216.143000,175.272000C215.843000,175.857000,215.407000,176.323000,214.834000,176.668000C214.261000,177.007000,213.613000,177.176000,212.891000,177.176000C211.602000,177.176000,210.566000,176.694000,209.785000,175.730000C209.010000,174.767000,208.623000,173.478000,208.623000,171.863000C208.623000,170.242000,209.014000,168.953000,209.795000,167.996000C210.576000,167.039000,211.624000,166.561000,212.939000,166.561000ZM213.457000,175.389000C214.271000,175.389000,214.928000,175.066000,215.430000,174.422000C215.938000,173.777000,216.191000,172.925000,216.191000,171.863000C216.191000,170.802000,215.938000,169.949000,215.430000,169.305000C214.928000,168.660000,214.271000,168.338000,213.457000,168.338000C212.630000,168.338000,211.976000,168.654000,211.494000,169.285000C211.019000,169.917000,210.781000,170.776000,210.781000,171.863000C210.781000,172.951000,211.019000,173.810000,211.494000,174.441000C211.976000,175.073000,212.630000,175.389000,213.457000,175.389000ZM229.199000,166.727000L229.199000,177L227.178000,177L227.178000,175.262000L227.129000,175.262000C226.536000,176.544000,225.475000,177.186000,223.945000,177.186000C222.826000,177.186000,221.943000,176.847000,221.299000,176.170000C220.661000,175.486000,220.342000,174.555000,220.342000,173.377000L220.342000,166.727000L222.451000,166.727000L222.451000,172.967000C222.451000,173.755000,222.637000,174.354000,223.008000,174.764000C223.379000,175.167000,223.926000,175.369000,224.648000,175.369000C225.404000,175.369000,225.999000,175.128000,226.436000,174.647000C226.872000,174.165000,227.090000,173.520000,227.090000,172.713000L227.090000,166.727000L229.199000,166.727000ZM237.373000,168.982000C236.911000,168.488000,236.315000,168.240000,235.586000,168.240000C234.857000,168.240000,234.251000,168.491000,233.770000,168.992000C233.288000,169.487000,233.021000,170.128000,232.969000,170.916000L238.105000,170.916000C238.079000,170.122000,237.835000,169.477000,237.373000,168.982000ZM238.096000,173.982000L240.098000,173.982000C239.948000,174.926000,239.466000,175.698000,238.652000,176.297000C237.839000,176.896000,236.846000,177.195000,235.674000,177.195000C234.170000,177.195000,232.985000,176.723000,232.119000,175.779000C231.260000,174.829000,230.830000,173.540000,230.830000,171.912000C230.830000,170.298000,231.260000,168.999000,232.119000,168.016000C232.985000,167.033000,234.141000,166.541000,235.586000,166.541000C237.005000,166.541000,238.132000,167.007000,238.965000,167.938000C239.798000,168.862000,240.215000,170.105000,240.215000,171.668000L240.215000,172.391000L232.959000,172.391000L232.959000,172.518000C232.959000,173.416000,233.210000,174.135000,233.711000,174.676000C234.212000,175.216000,234.883000,175.486000,235.723000,175.486000C236.315000,175.486000,236.823000,175.350000,237.246000,175.076000C237.669000,174.803000,237.953000,174.438000,238.096000,173.982000ZM241.670000,169.637000C241.670000,168.719000,242.041000,167.973000,242.783000,167.400000C243.525000,166.828000,244.495000,166.541000,245.693000,166.541000C246.833000,166.541000,247.767000,166.831000,248.496000,167.410000C249.232000,167.983000,249.616000,168.729000,249.648000,169.647000L247.666000,169.647000C247.614000,169.178000,247.409000,168.810000,247.051000,168.543000C246.693000,168.276000,246.221000,168.143000,245.635000,168.143000C245.062000,168.143000,244.600000,168.270000,244.248000,168.523000C243.903000,168.777000,243.730000,169.106000,243.730000,169.510000C243.730000,170.135000,244.255000,170.578000,245.303000,170.838000L247.031000,171.238000C248.066000,171.486000,248.799000,171.824000,249.229000,172.254000C249.665000,172.677000,249.883000,173.270000,249.883000,174.031000C249.883000,174.969000,249.486000,175.730000,248.691000,176.316000C247.904000,176.902000,246.878000,177.195000,245.615000,177.195000C244.411000,177.195000,243.428000,176.909000,242.666000,176.336000C241.911000,175.763000,241.491000,175.001000,241.406000,174.051000L243.496000,174.051000C243.581000,174.546000,243.812000,174.926000,244.189000,175.193000C244.567000,175.454000,245.075000,175.584000,245.713000,175.584000C246.344000,175.584000,246.842000,175.464000,247.207000,175.223000C247.578000,174.975000,247.764000,174.643000,247.764000,174.227000C247.764000,173.895000,247.653000,173.631000,247.432000,173.436000C247.210000,173.240000,246.833000,173.074000,246.299000,172.938000L244.463000,172.488000C242.601000,172.039000,241.670000,171.089000,241.670000,169.637000ZM252.139000,164.295000L254.258000,164.295000L254.258000,166.727000L256.211000,166.727000L256.211000,168.397000L254.258000,168.397000L254.258000,174.061000C254.258000,174.503000,254.359000,174.829000,254.561000,175.037000C254.762000,175.245000,255.078000,175.350000,255.508000,175.350000C255.820000,175.350000,256.051000,175.333000,256.201000,175.301000L256.201000,176.971000C255.941000,177.036000,255.550000,177.068000,255.029000,177.068000C253.994000,177.068000,253.252000,176.857000,252.803000,176.434000C252.360000,176.004000,252.139000,175.291000,252.139000,174.295000L252.139000,168.397000L250.645000,168.397000L250.645000,166.727000L252.139000,166.727000L252.139000,164.295000ZM260.439000,176.736000C260.192000,176.984000,259.889000,177.107000,259.531000,177.107000C259.173000,177.107000,258.870000,176.984000,258.623000,176.736000C258.376000,176.489000,258.252000,176.186000,258.252000,175.828000C258.252000,175.470000,258.376000,175.167000,258.623000,174.920000C258.870000,174.673000,259.173000,174.549000,259.531000,174.549000C259.889000,174.549000,260.192000,174.673000,260.439000,174.920000C260.687000,175.167000,260.811000,175.470000,260.811000,175.828000C260.811000,176.186000,260.687000,176.489000,260.439000,176.736000ZM265.693000,176.736000C265.446000,176.984000,265.143000,177.107000,264.785000,177.107000C264.427000,177.107000,264.124000,176.984000,263.877000,176.736000C263.630000,176.489000,263.506000,176.186000,263.506000,175.828000C263.506000,175.470000,263.630000,175.167000,263.877000,174.920000C264.124000,174.673000,264.427000,174.549000,264.785000,174.549000C265.143000,174.549000,265.446000,174.673000,265.693000,174.920000C265.941000,175.167000,266.064000,175.470000,266.064000,175.828000C266.064000,176.186000,265.941000,176.489000,265.693000,176.736000ZM270.947000,176.736000C270.700000,176.984000,270.397000,177.107000,270.039000,177.107000C269.681000,177.107000,269.378000,176.984000,269.131000,176.736000C268.883000,176.489000,268.760000,176.186000,268.760000,175.828000C268.760000,175.470000,268.883000,175.167000,269.131000,174.920000C269.378000,174.673000,269.681000,174.549000,270.039000,174.549000C270.397000,174.549000,270.700000,174.673000,270.947000,174.920000C271.195000,175.167000,271.318000,175.470000,271.318000,175.828000C271.318000,176.186000,271.195000,176.489000,270.947000,176.736000Z" fill="rgb(111,120,129)" stroke="none" stroke-width="1"/><g id="etrp00u7qjrh3_tr" transform="translate(169.999231,170.000408) rotate(-360)"><path id="etrp00u7qjrh3" d="M169.999000,30.000500C197.689000,30.000500,224.756000,38.211400,247.779000,53.594800C270.802000,68.978200,288.746000,90.843200,299.342000,116.425000C309.939000,142.007000,312.711000,170.156000,307.309000,197.313000C301.907000,224.471000,288.573000,249.416000,268.994000,268.995000C249.415000,288.575000,224.469000,301.909000,197.312000,307.310000C170.155000,312.712000,142.005000,309.940000,116.424000,299.344000C90.841900,288.747000,68.976900,270.803000,53.593500,247.780000C38.210100,224.757000,29.999200,197.690000,29.999200,170.001000L35.196700,170.001000C35.196700,196.662000,43.102700,222.725000,57.915000,244.893000C72.727300,267.061000,93.780600,284.339000,118.413000,294.542000C143.044000,304.745000,170.149000,307.414000,196.298000,302.213000C222.447000,297.012000,246.467000,284.173000,265.319000,265.320000C284.171000,246.468000,297.010000,222.448000,302.212000,196.299000C307.413000,170.150000,304.743000,143.046000,294.541000,118.414000C284.338000,93.781900,267.060000,72.728600,244.891000,57.916300C222.723000,43.104000,196.661000,35.198000,169.999000,35.198000L169.999000,30.000500Z" transform="translate(-169.999231,-170.000408)" fill="rgb(213,221,230)" stroke="none" stroke-width="1"/></g></svg>