<svg width="336" height="27" viewBox="0 0 336 27" fill="none" xmlns="http://www.w3.org/2000/svg">
<path d="M5.872 26H0.4V3.536H5.872V13.392L13.296 3.536H20.464L11.216 14.768L20.464 26H13.424L5.872 16.08V26ZM34.3113 20.336C35.1006 19.568 35.4953 18.48 35.4953 17.072C35.4953 15.664 35.1006 14.5867 34.3113 13.84C33.5219 13.072 32.6153 12.688 31.5913 12.688C30.5673 12.688 29.6606 13.072 28.8713 13.84C28.0819 14.608 27.6873 15.696 27.6873 17.104C27.6873 18.512 28.0819 19.6 28.8713 20.368C29.6606 21.1147 30.5673 21.488 31.5913 21.488C32.6153 21.488 33.5219 21.104 34.3113 20.336ZM24.4873 23.664C22.9086 21.9573 22.1193 19.7707 22.1193 17.104C22.1193 14.4373 22.9086 12.2507 24.4873 10.544C26.0659 8.816 27.9859 7.952 30.2473 7.952C32.5299 7.952 34.2793 8.79467 35.4953 10.48V8.144H40.9673V26H35.4953V23.408C34.1726 25.2853 32.4019 26.224 30.1833 26.224C27.9646 26.224 26.0659 25.3707 24.4873 23.664ZM53.359 21.36H55.311V26H52.527C50.5217 26 48.9643 25.5627 47.855 24.688C46.767 23.792 46.223 22.2667 46.223 20.112V12.688H44.559V8.144H46.223V3.792H51.695V8.144H55.279V12.688H51.695V20.112C51.695 20.944 52.2497 21.36 53.359 21.36ZM66.6403 26.224C64.0376 26.224 61.9043 25.392 60.2403 23.728C58.5763 22.0427 57.7443 19.8133 57.7443 17.04C57.7443 14.2667 58.5656 12.0587 60.2083 10.416C61.8723 8.77333 64.0163 7.952 66.6403 7.952C69.2643 7.952 71.4403 8.76267 73.1683 10.384C74.8963 12.0053 75.7603 14.256 75.7603 17.136C75.7603 17.7547 75.7176 18.3307 75.6323 18.864H63.3443C63.4509 19.6533 63.8029 20.304 64.4003 20.816C64.9976 21.3067 65.6376 21.552 66.3203 21.552C67.0243 21.552 67.5469 21.488 67.8883 21.36C68.2296 21.2107 68.4749 21.072 68.6243 20.944C68.7949 20.7947 69.0083 20.56 69.2643 20.24H75.1843C74.6723 22.032 73.6483 23.4827 72.1123 24.592C70.5763 25.68 68.7523 26.224 66.6403 26.224ZM70.0643 15.44C69.9789 14.608 69.6163 13.936 68.9763 13.424C68.3363 12.8907 67.5789 12.624 66.7043 12.624C65.8296 12.624 65.0936 12.8907 64.4963 13.424C63.8989 13.936 63.5256 14.608 63.3763 15.44H70.0643ZM84.747 8.144V11.472C86.027 9.12533 87.7337 7.952 89.867 7.952V13.52H88.523C87.2643 13.52 86.315 13.8187 85.675 14.416C85.0563 15.0133 84.747 16.0587 84.747 17.552V26H79.275V8.144H84.747ZM97.8295 6.128C97.2108 6.74667 96.4535 7.056 95.5575 7.056C94.6615 7.056 93.9042 6.74667 93.2855 6.128C92.6668 5.50933 92.3575 4.752 92.3575 3.856C92.3575 2.93867 92.6668 2.17067 93.2855 1.552C93.9042 0.933332 94.6615 0.623999 95.5575 0.623999C96.4535 0.623999 97.2108 0.933332 97.8295 1.552C98.4482 2.17067 98.7575 2.93867 98.7575 3.856C98.7575 4.752 98.4482 5.50933 97.8295 6.128ZM92.8375 26V8.144H98.3095V26H92.8375ZM108.591 8.144V10.768C109.721 8.89067 111.524 7.952 113.999 7.952C116.047 7.952 117.7 8.63467 118.959 10C120.239 11.3653 120.879 13.2213 120.879 15.568V26H115.439V16.304C115.439 15.152 115.129 14.2667 114.511 13.648C113.913 13.008 113.081 12.688 112.015 12.688C110.948 12.688 110.105 13.008 109.487 13.648C108.889 14.2667 108.591 15.152 108.591 16.304V26H103.119V8.144H108.591ZM136.405 20.336C137.194 19.568 137.589 18.48 137.589 17.072C137.589 15.664 137.194 14.5867 136.405 13.84C135.616 13.072 134.709 12.688 133.685 12.688C132.661 12.688 131.754 13.072 130.965 13.84C130.176 14.608 129.781 15.696 129.781 17.104C129.781 18.512 130.176 19.6 130.965 20.368C131.754 21.1147 132.661 21.488 133.685 21.488C134.709 21.488 135.616 21.104 136.405 20.336ZM126.581 23.664C125.002 21.9573 124.213 19.7707 124.213 17.104C124.213 14.4373 125.002 12.2507 126.581 10.544C128.16 8.816 130.08 7.952 132.341 7.952C134.624 7.952 136.373 8.79467 137.589 10.48V8.144H143.061V26H137.589V23.408C136.266 25.2853 134.496 26.224 132.277 26.224C130.058 26.224 128.16 25.3707 126.581 23.664ZM172.535 3.536V7.696L162.967 21.84H172.535V26H156.663V21.84L166.231 7.696H156.663V3.536H172.535ZM181.997 2.32V10.768C183.128 8.89067 184.93 7.952 187.405 7.952C189.453 7.952 191.106 8.63467 192.365 10C193.645 11.3653 194.285 13.2213 194.285 15.568V26H188.845V16.304C188.845 15.152 188.536 14.2667 187.917 13.648C187.32 13.008 186.488 12.688 185.421 12.688C184.354 12.688 183.512 13.008 182.893 13.648C182.296 14.2667 181.997 15.152 181.997 16.304V26H176.525V2.32H181.997ZM211.059 8.144H216.531V26H211.059V23.376C209.929 25.2533 208.126 26.192 205.651 26.192C203.603 26.192 201.939 25.5093 200.659 24.144C199.401 22.7787 198.771 20.9227 198.771 18.576V8.144H204.211V17.84C204.211 18.992 204.51 19.888 205.107 20.528C205.726 21.1467 206.569 21.456 207.635 21.456C208.702 21.456 209.534 21.1467 210.131 20.528C210.75 19.888 211.059 18.992 211.059 17.84V8.144ZM219.066 8.144H224.89L228.954 21.424L233.018 8.144H238.842L232.506 26H225.402L219.066 8.144ZM252.249 20.336C253.038 19.568 253.433 18.48 253.433 17.072C253.433 15.664 253.038 14.5867 252.249 13.84C251.459 13.072 250.553 12.688 249.529 12.688C248.505 12.688 247.598 13.072 246.809 13.84C246.019 14.608 245.625 15.696 245.625 17.104C245.625 18.512 246.019 19.6 246.809 20.368C247.598 21.1147 248.505 21.488 249.529 21.488C250.553 21.488 251.459 21.104 252.249 20.336ZM242.425 23.664C240.846 21.9573 240.057 19.7707 240.057 17.104C240.057 14.4373 240.846 12.2507 242.425 10.544C244.003 8.816 245.923 7.952 248.185 7.952C250.467 7.952 252.217 8.79467 253.433 10.48V8.144H258.905V26H253.433V23.408C252.11 25.2853 250.339 26.224 248.121 26.224C245.902 26.224 244.003 25.3707 242.425 23.664ZM269.185 8.144V11.472C270.465 9.12533 272.171 7.952 274.305 7.952V13.52H272.961C271.702 13.52 270.753 13.8187 270.113 14.416C269.494 15.0133 269.185 16.0587 269.185 17.552V26H263.713V8.144H269.185ZM287.995 20.4C288.72 19.632 289.083 18.5227 289.083 17.072C289.083 15.6213 288.71 14.5227 287.963 13.776C287.216 13.008 286.331 12.624 285.307 12.624C284.283 12.624 283.398 13.008 282.651 13.776C281.926 14.5227 281.563 15.6213 281.563 17.072C281.563 18.5227 281.936 19.632 282.683 20.4C283.451 21.168 284.347 21.552 285.371 21.552C286.395 21.552 287.27 21.168 287.995 20.4ZM278.683 23.696C276.891 22.0107 275.995 19.792 275.995 17.04C275.995 14.288 276.891 12.0907 278.683 10.448C280.475 8.784 282.694 7.952 285.339 7.952C287.984 7.952 290.192 8.784 291.963 10.448C293.755 12.0907 294.651 14.288 294.651 17.04C294.651 19.792 293.766 22.0107 291.995 23.696C290.224 25.3813 288.016 26.224 285.371 26.224C282.726 26.224 280.496 25.3813 278.683 23.696ZM295.909 8.144H301.733L305.797 21.424L309.861 8.144H315.685L309.349 26H302.245L295.909 8.144ZM329.093 20.336C329.882 19.568 330.277 18.48 330.277 17.072C330.277 15.664 329.882 14.5867 329.093 13.84C328.303 13.072 327.397 12.688 326.373 12.688C325.349 12.688 324.442 13.072 323.653 13.84C322.863 14.608 322.469 15.696 322.469 17.104C322.469 18.512 322.863 19.6 323.653 20.368C324.442 21.1147 325.349 21.488 326.373 21.488C327.397 21.488 328.303 21.104 329.093 20.336ZM319.269 23.664C317.69 21.9573 316.901 19.7707 316.901 17.104C316.901 14.4373 317.69 12.2507 319.269 10.544C320.847 8.816 322.767 7.952 325.029 7.952C327.311 7.952 329.061 8.79467 330.277 10.48V8.144H335.749V26H330.277V23.408C328.954 25.2853 327.183 26.224 324.965 26.224C322.746 26.224 320.847 25.3707 319.269 23.664Z" fill="black"/>
</svg>
